<mxfile host="app.diagrams.net" modified="2023-10-15T15:52:45.663Z" agent="Mozilla/5.0 (Windows NT 10.0; Win64; x64) AppleWebKit/537.36 (KHTML, like Gecko) Chrome/118.0.0.0 Safari/537.36" version="22.0.4" etag="JNEmd-sXy5XBw4_cQ7SG" type="github">
  <diagram name="PÃ¡gina-1" id="h7G7wKTqeW1ms82aTiUC">
    <mxGraphModel>
      <root>
        <mxCell id="0" />
        <mxCell id="1" parent="0" />
      </root>
    </mxGraphModel>
  </diagram>
</mxfile>
